<?xml version="1.0" encoding="UTF-8" standalone="no"?>
<svg
   xmlns:dc="http://purl.org/dc/elements/1.1/"
   xmlns:cc="http://creativecommons.org/ns#"
   xmlns:rdf="http://www.w3.org/1999/02/22-rdf-syntax-ns#"
   xmlns:svg="http://www.w3.org/2000/svg"
   xmlns="http://www.w3.org/2000/svg"
   xmlns:sodipodi="http://sodipodi.sourceforge.net/DTD/sodipodi-0.dtd"
   xmlns:inkscape="http://www.inkscape.org/namespaces/inkscape"
   version="1.1"
   id="svg2"
   xml:space="preserve"
   width="1632"
   height="672"
   viewBox="0 0 1632 672"
   sodipodi:docname="TEDDY BEAR LOGO.svg"
   inkscape:version="1.0.1 (3bc2e813f5, 2020-09-07)"><metadata
     id="metadata8"><rdf:RDF><cc:Work
         rdf:about=""><dc:format>image/svg+xml</dc:format><dc:type
           rdf:resource="http://purl.org/dc/dcmitype/StillImage" /><dc:title></dc:title></cc:Work></rdf:RDF></metadata><defs
     id="defs6" /><sodipodi:namedview
     pagecolor="#ffffff"
     bordercolor="#666666"
     borderopacity="1"
     objecttolerance="10"
     gridtolerance="10"
     guidetolerance="10"
     inkscape:pageopacity="0"
     inkscape:pageshadow="2"
     inkscape:window-width="1920"
     inkscape:window-height="1095"
     id="namedview4"
     showgrid="false"
     inkscape:zoom="0.96568627"
     inkscape:cx="816"
     inkscape:cy="336"
     inkscape:window-x="-8"
     inkscape:window-y="-8"
     inkscape:window-maximized="1"
     inkscape:current-layer="g10" /><g
     id="g10"
     inkscape:groupmode="layer"
     inkscape:label="TEDDY BEAR LOGO (1)"
     transform="matrix(1.3333333,0,0,1.3333333,0,1.68e-5)"><g
       id="g12"><path
         d="m 720.699,279 c 0.082,5.82 0.317,11.738 0.989,17.469 0.437,3.691 1.152,8.32 2.687,11.734 l 1.203,2.672 -2.496,1.539 c -1.914,1.184 -3.937,2.234 -6.047,3.027 -1.836,0.692 -3.789,1.168 -5.765,1.168 -3.016,0 -5.821,-1.035 -7.454,-3.687 -1.601,-2.598 -1.773,-6.813 -1.773,-9.789 0,-6.258 0.371,-12.707 0.629,-18.961 0.371,-8.906 0.629,-17.832 0.629,-26.746 0,-9.817 -0.059,-19.926 -0.871,-29.711 -0.27,-3.281 -0.883,-10.067 -2.403,-13.008 l -2.519,-4.871 h 8.105 c 3.75,0 7.664,-0.352 11.399,-0.68 4.023,-0.355 8.195,-0.707 12.238,-0.707 8.969,0 17.633,2.231 24.219,8.598 6.519,6.301 8.941,14.652 8.941,23.558 0,10.473 -2.996,20.071 -10.32,27.7 -7.231,7.531 -16.473,10.804 -26.844,10.804 -1.473,0 -2.949,-0.015 -4.422,-0.101 -0.043,-0.004 -0.082,-0.004 -0.125,-0.008 z m 53.539,4.117 c 0.367,4.43 1.672,8.731 4.703,12.145 3.383,3.808 7.848,5.222 12.84,5.222 2.489,0 4.965,-0.343 7.317,-1.171 2.222,-0.778 4.215,-1.954 6.011,-3.473 l 2.774,-2.352 2.105,2.961 c 0.942,1.321 1.77,2.739 2.36,4.25 0.55,1.406 0.879,2.875 0.879,4.391 0,4.43 -3.086,7.375 -6.817,9.199 -4.375,2.145 -9.558,2.75 -14.375,2.75 -9.789,0 -18.765,-2.855 -25.457,-10.203 -6.89,-7.559 -9.191,-17.441 -9.191,-27.441 0,-10.407 2.465,-20.45 9.133,-28.633 6.195,-7.606 14.293,-11.539 24.109,-11.539 7.316,0 13.836,2.324 19.012,7.55 5.187,5.235 7.484,11.793 7.484,19.122 0,5.816 -1.898,11.097 -6.961,14.296 -5.402,3.414 -13.922,3.93 -20.141,3.93 -3.324,0 -6.644,-0.125 -9.953,-0.394 -1.949,-0.161 -3.894,-0.364 -5.832,-0.61 z m 94.485,27.383 c -1.668,1.402 -3.461,2.652 -5.383,3.672 -4.067,2.152 -8.473,3.152 -13.07,3.152 -9.086,0 -16.704,-3.461 -22.567,-10.418 -6.215,-7.375 -8.558,-16.472 -8.558,-25.984 0,-11.008 3.046,-21.192 10.421,-29.484 7.082,-7.973 16.082,-11.93 26.739,-11.93 2.789,0 5.574,0.383 8.289,1.019 1.422,0.336 2.828,0.746 4.215,1.211 v -1.273 c 0,-5.524 -0.102,-11.258 -0.731,-16.746 -0.332,-2.875 -0.863,-6.364 -2.015,-9.035 l -1.129,-2.629 2.421,-1.52 c 1.661,-1.043 3.446,-1.957 5.301,-2.597 1.567,-0.536 3.239,-0.918 4.899,-0.918 2.738,0 5.324,0.875 6.89,3.234 1.508,2.273 1.731,5.703 1.731,8.359 0,2.25 -0.121,4.551 -0.207,6.805 -0.188,4.676 -0.399,9.355 -0.614,14.031 -0.5,10.754 -0.816,21.524 -0.816,32.289 0,8.332 -0.039,17.356 0.863,25.641 0.371,3.414 1.063,7.98 2.661,11.062 l 1.449,2.793 -2.703,1.614 c -1.754,1.043 -3.61,2 -5.539,2.672 -1.653,0.574 -3.387,0.949 -5.141,0.949 -2.563,0 -4.891,-0.938 -6.297,-3.149 -0.527,-0.836 -0.879,-1.804 -1.109,-2.82 z m 47.695,2.309 c -1.762,1.101 -3.637,2.05 -5.605,2.718 l -0.055,0.02 c -1.793,0.57 -3.637,0.922 -5.52,0.922 -2.82,0 -5.472,-0.973 -6.965,-3.508 -1.41,-2.398 -1.531,-6.418 -1.531,-9.137 0,-4.804 0.328,-9.777 0.571,-14.578 0.32,-6.332 0.562,-12.695 0.562,-19.035 0,-4.52 -0.098,-9.262 -0.707,-13.746 -0.383,-2.84 -1.02,-5.797 -2.148,-8.442 l -1.075,-2.527 2.27,-1.543 c 1.695,-1.152 3.523,-2.094 5.469,-2.742 1.875,-0.629 3.812,-0.984 5.793,-0.984 2.613,0 5.168,0.796 6.668,3.078 1.39,2.109 1.597,5.218 1.597,7.679 0,4.016 -0.363,8.36 -0.566,12.383 -0.36,6.981 -0.563,13.977 -0.563,20.969 0,4.969 0.137,10.125 0.809,15.055 0.414,3.07 1.07,6.414 2.297,9.273 l 1.121,2.629 z m 1.086,-90.547 c 0,3.355 -1.051,6.429 -3.34,8.902 -2.301,2.481 -5.277,3.719 -8.652,3.719 -2.953,0 -5.621,-0.985 -7.629,-3.195 -1.996,-2.196 -2.774,-4.977 -2.774,-7.899 0,-3.344 1.071,-6.375 3.297,-8.875 2.219,-2.496 5.094,-3.887 8.446,-3.887 3.019,0 5.664,1.094 7.714,3.321 2.028,2.199 2.938,4.941 2.938,7.914 z m 46.57,89.191 c -1.715,1.289 -3.535,2.442 -5.453,3.367 -3.348,1.621 -6.914,2.504 -10.633,2.504 -6.644,0 -12.625,-2.062 -17.265,-6.89 -4.688,-4.879 -6.571,-11.086 -6.571,-17.774 0,-7.957 2.828,-14.765 8.942,-19.918 6.48,-5.469 14.734,-7.324 23.047,-7.324 1.605,0 3.211,0.059 4.812,0.176 0.594,0.043 1.192,0.094 1.785,0.144 -0.093,-2.816 -0.699,-5.836 -2.675,-7.925 -2.063,-2.18 -5.083,-2.75 -7.969,-2.75 -2.559,0 -5.36,0.363 -7.606,1.671 -2.086,1.211 -3.55,3.102 -4.629,5.227 l -1.254,2.477 -2.664,-0.778 c -2.027,-0.594 -3.839,-1.676 -5.105,-3.398 -1.285,-1.746 -1.781,-3.817 -1.781,-5.961 0,-5.11 3.074,-8.813 7.336,-11.305 4.945,-2.891 10.871,-3.773 16.519,-3.773 7.199,0 14.328,1.765 19.324,7.277 5.082,5.605 6.5,13.398 6.5,20.73 0,2.708 -0.097,5.442 -0.187,8.149 -0.098,3.027 -0.188,6.066 -0.188,9.098 0,4.863 0.121,10.136 0.957,14.933 0.481,2.774 1.305,5.836 2.825,8.235 l 1.679,2.66 -2.554,1.836 c -1.532,1.101 -3.164,2.136 -4.868,2.949 l -0.066,0.031 c -1.512,0.684 -3.164,1.203 -4.832,1.203 -2.73,0 -5.152,-1.066 -6.629,-3.367 -0.312,-0.465 -0.574,-0.973 -0.797,-1.504 z m 30.117,-50.883 c -0.601,0.039 -1.211,0.075 -1.796,0.075 -1.95,0 -4.04,-0.286 -5.614,-1.528 -1.664,-1.312 -2.273,-3.316 -2.273,-5.367 0,-0.965 0.14,-1.926 0.355,-2.867 0.258,-1.125 0.629,-2.219 1.063,-3.285 l 0.851,-2.075 h 2.243 c 0.613,0 1.242,0.04 1.859,0.075 0.543,0.035 1.094,0.066 1.641,0.066 0.832,0 1.671,-0.027 2.515,-0.07 0.02,-0.477 0.031,-0.957 0.031,-1.434 0,-3.027 -0.128,-6.125 -0.57,-9.125 -0.328,-2.211 -0.848,-4.449 -1.695,-6.523 l -1.121,-2.746 2.59,-1.438 c 1.671,-0.926 3.414,-1.797 5.207,-2.457 1.488,-0.547 3.117,-0.969 4.714,-0.969 2.664,0 5.024,1.059 6.469,3.344 1.371,2.172 1.649,5.094 1.649,7.606 0,3.625 -0.344,7.535 -0.551,11.164 -0.028,0.461 -0.051,0.918 -0.078,1.379 0.832,-0.106 1.668,-0.204 2.508,-0.29 1.804,-0.179 3.628,-0.3 5.449,-0.3 1.859,0 3.734,0.414 5.148,1.695 l 0.094,0.09 c 1.398,1.363 1.887,3.23 1.887,5.133 0,1.242 -0.321,2.523 -0.719,3.695 l -0.024,0.059 c -0.492,1.375 -1.121,2.707 -1.82,3.992 l -1.262,2.328 -2.55,-0.699 c -0.942,-0.258 -1.911,-0.434 -2.875,-0.551 -1.282,-0.152 -2.606,-0.192 -3.895,-0.192 -0.793,0 -1.617,0.055 -2.41,0.094 -0.219,0.012 -0.438,0.02 -0.652,0.031 -0.25,4.969 -0.465,9.934 -0.641,14.907 -0.137,3.793 -0.25,7.605 -0.25,11.402 0,3.344 0.074,9.231 1.285,12.375 0.383,0.996 0.805,1.75 1.934,1.75 0.289,0 0.636,-0.105 0.855,-0.184 0.422,-0.171 0.86,-0.468 1.246,-0.785 l 3.504,-2.851 1.699,4.183 c 0.391,0.965 0.75,1.965 0.961,2.985 0.207,0.859 0.336,1.734 0.336,2.613 0,3.195 -1.203,6.004 -3.601,8.129 -2.43,2.156 -5.477,3.035 -8.688,3.035 -5.277,0 -9.738,-2.031 -12.633,-6.512 -3.117,-4.824 -3.761,-11.57 -3.761,-17.175 0,-5.161 0.359,-10.536 0.609,-15.692 0.277,-5.695 0.543,-11.394 0.777,-17.09 z m 54.735,-12.718 c 1.027,-1.153 2.101,-2.239 3.23,-3.211 2.938,-2.536 6.43,-4.414 10.399,-4.414 3.191,0 5.996,1.203 8.23,3.48 2.262,2.309 3.383,5.219 3.383,8.445 0,2.289 -0.68,4.438 -1.867,6.387 -1.262,2.074 -3.02,3.836 -4.895,5.363 l -3.808,3.106 -1.485,-4.688 c -0.312,-0.988 -0.855,-2.437 -1.601,-3.195 -0.324,-0.324 -0.621,-0.484 -1.082,-0.484 -1.407,0 -3.032,1.453 -3.938,2.379 -2.262,2.316 -4.129,5.468 -5.621,8.378 -0.176,1.875 -0.305,3.754 -0.414,5.633 -0.117,2.043 -0.184,4.086 -0.184,6.129 0,5.617 0.172,11.449 0.973,17.012 0.504,3.496 1.32,7.308 2.852,10.512 l 1.308,2.742 -2.605,1.558 c -1.738,1.039 -3.574,1.926 -5.5,2.555 -1.828,0.598 -3.719,0.93 -5.649,0.93 -2.73,0 -5.371,-0.848 -6.937,-3.223 -1.516,-2.305 -1.68,-6.023 -1.68,-8.707 0,-4.793 0.395,-9.894 0.633,-14.691 0.387,-7.754 0.625,-15.524 0.625,-23.285 0,-4.301 -0.035,-8.926 -0.582,-13.196 -0.332,-2.582 -0.891,-5.183 -1.836,-7.617 l -1.187,-3.059 3.039,-1.242 c 0.972,-0.394 1.98,-0.699 3.007,-0.914 1.043,-0.219 2.114,-0.308 3.18,-0.308 2.934,0 5.766,0.796 7.781,3.031 1.184,1.312 1.871,2.906 2.231,4.594 z m 48.781,64.957 c -1.762,1.101 -3.637,2.05 -5.605,2.718 l -0.055,0.02 c -1.793,0.57 -3.637,0.922 -5.52,0.922 -2.824,0 -5.472,-0.973 -6.964,-3.508 -1.411,-2.395 -1.532,-6.418 -1.532,-9.137 0,-4.804 0.328,-9.777 0.571,-14.578 0.32,-6.332 0.562,-12.695 0.562,-19.035 0,-4.52 -0.098,-9.262 -0.703,-13.746 -0.383,-2.84 -1.023,-5.797 -2.152,-8.442 l -1.079,-2.527 2.274,-1.543 c 1.695,-1.152 3.523,-2.094 5.469,-2.742 1.875,-0.629 3.816,-0.984 5.797,-0.984 2.609,0 5.164,0.796 6.668,3.074 1.39,2.113 1.593,5.222 1.593,7.683 0,4.016 -0.363,8.36 -0.57,12.383 -0.356,6.981 -0.559,13.977 -0.559,20.969 0,4.969 0.137,10.125 0.805,15.055 0.418,3.07 1.074,6.414 2.301,9.273 l 1.121,2.629 z m 1.086,-90.547 c 0,3.355 -1.051,6.429 -3.34,8.902 -2.301,2.481 -5.277,3.719 -8.652,3.719 -2.953,0 -5.621,-0.985 -7.629,-3.195 -1.996,-2.196 -2.774,-4.977 -2.774,-7.899 0,-3.344 1.071,-6.375 3.297,-8.875 2.219,-2.496 5.094,-3.887 8.446,-3.887 3.019,0 5.664,1.094 7.714,3.321 2.028,2.199 2.938,4.941 2.938,7.914 z m 49.707,37.203 c -1.156,-0.813 -2.437,-1.527 -3.781,-1.965 -1.289,-0.418 -2.653,-0.574 -4,-0.574 -5.383,0 -9.578,2.211 -12.961,6.375 -4,4.926 -5.453,10.906 -5.453,17.168 0,5.23 1.086,10.519 4.648,14.531 3.27,3.68 7.543,5.055 12.402,5.055 2.114,0 4.215,-0.297 6.196,-1.047 1.918,-0.727 3.621,-1.848 5.129,-3.227 l 2.953,-2.711 2.129,3.399 c 0.797,1.261 1.484,2.597 1.992,4.004 0.488,1.351 0.762,2.769 0.762,4.211 0,4.41 -2.407,7.711 -6.149,9.879 -4.105,2.378 -9.156,3.05 -13.828,3.05 -9.391,0 -17.726,-2.988 -24.266,-9.808 -6.628,-6.91 -9.335,-15.637 -9.335,-25.117 0,-11.598 3.343,-22.122 11.035,-30.879 7.211,-8.207 16.293,-12.731 27.257,-12.731 3.293,0 7.012,0.434 9.809,2.313 2.781,1.871 4.094,4.746 4.094,8.066 0,1.719 -0.383,3.402 -1.113,4.957 -0.774,1.633 -1.895,3.137 -3.071,4.5 l -1.976,2.293 z m 18.922,39.637 c 1.094,0.66 2.269,1.25 3.492,1.625 0.957,0.296 1.953,0.472 2.957,0.472 1.777,0 3.543,-0.355 4.906,-1.566 1.157,-1.024 1.582,-2.293 1.582,-3.824 0,-1.469 -0.336,-2.821 -1.046,-4.106 -1.098,-1.976 -3.243,-4.086 -4.86,-5.57 -0.625,-0.543 -1.273,-1.129 -1.91,-1.731 -5.258,-4.961 -11.422,-12.101 -11.422,-19.773 0,-2.465 0.438,-4.887 1.223,-7.223 0.824,-2.441 2.027,-4.711 3.558,-6.781 2.731,-3.703 6.098,-6.793 10.172,-8.961 3.985,-2.113 8.289,-3.156 12.801,-3.156 2.367,0 4.77,0.512 6.625,2.066 1.906,1.59 2.727,3.86 2.727,6.309 0,1.316 -0.321,2.652 -0.735,3.898 -0.527,1.571 -1.285,3.141 -2.043,4.617 l -1.476,2.872 -2.922,-1.379 c -0.824,-0.391 -1.696,-0.75 -2.574,-0.989 -0.668,-0.175 -1.344,-0.265 -2.032,-0.265 -2.222,0 -4.347,0.488 -6.039,1.992 -1.457,1.301 -2.043,2.863 -2.043,4.805 0,3.187 5.457,8.812 7.543,10.851 1.137,1.113 2.27,2.238 3.317,3.36 2.316,2.32 4.465,5 5.941,8.007 1.34,2.739 2.059,5.653 2.059,8.7 0,6.929 -2.817,12.785 -7.856,17.472 -5.258,4.891 -11.621,7.219 -18.789,7.219 -2.633,0 -5.289,-0.578 -7.336,-2.324 -2.066,-1.758 -3,-4.172 -3,-6.86 0,-1.336 0.258,-2.664 0.645,-3.902 0.437,-1.496 1.117,-3.008 1.801,-4.437 l 1.585,-3.309 z M 720.793,261.953 c 0.164,0.012 0.332,0.027 0.496,0.039 1.274,0.098 2.555,0.133 3.832,0.133 5.109,0 9.879,-1.277 13.453,-5.078 3.735,-3.973 4.836,-9.375 4.836,-14.676 0,-4.433 -0.836,-9.262 -4.07,-12.539 -3.223,-3.269 -7.957,-4.113 -12.375,-4.113 -1.188,0 -2.375,0.07 -3.559,0.215 -0.586,0.07 -1.176,0.164 -1.761,0.273 -0.258,5.336 -0.454,10.68 -0.602,16.02 -0.164,5.789 -0.25,11.578 -0.25,17.367 z m 54.621,6.238 c 1.766,0.25 3.547,0.434 5.32,0.579 3.414,0.273 6.848,0.367 10.274,0.367 1.828,0 6.91,-0.098 8.5,-1.09 0.91,-0.57 1.004,-2.043 1.004,-2.988 0,-2.899 -0.707,-5.61 -2.844,-7.657 -2.23,-2.132 -5.25,-2.769 -8.254,-2.769 -3.773,0 -6.848,1.305 -9.398,4.09 -2.395,2.621 -3.797,6.004 -4.602,9.468 z m 92.723,23.164 c 0.082,-4.539 0.156,-9.082 0.211,-13.621 0.035,-2.91 0.086,-5.828 0.086,-8.738 0,-2.617 0.007,-5.238 -0.024,-7.855 -0.012,-0.895 -0.035,-1.789 -0.066,-2.684 -1.871,-0.82 -3.797,-1.523 -5.762,-2.055 -2.039,-0.55 -4.164,-0.91 -6.277,-0.91 -5.828,0 -10.688,1.879 -14.407,6.43 -4.265,5.223 -5.515,12.117 -5.515,18.691 0,5.317 0.98,10.93 4.414,15.168 2.922,3.617 6.723,5.133 11.336,5.133 3.137,0 6.023,-0.781 8.695,-2.418 2.887,-1.769 5.317,-4.394 7.309,-7.141 z m 94.328,-10.183 c -0.707,-0.102 -1.418,-0.192 -2.125,-0.27 -1.149,-0.129 -2.313,-0.218 -3.469,-0.218 -3.957,0 -9.074,0.5 -12.359,2.945 -2.657,1.969 -3.496,4.832 -3.496,8.027 0,2.469 0.55,4.86 2.363,6.625 1.875,1.824 4.461,2.348 6.996,2.348 2.438,0 4.727,-0.52 6.91,-1.59 1.988,-0.98 3.723,-2.375 5.235,-3.976 -0.055,-1.477 -0.102,-2.958 -0.122,-4.434 -0.019,-1.422 -0.023,-2.844 -0.023,-4.266 0,-1.347 0.035,-2.695 0.066,-4.039 0.008,-0.383 0.016,-0.765 0.024,-1.152"
         style="fill:#0067b0;fill-opacity:1;fill-rule:evenodd;stroke:none"
         id="path14" /><path
         d="m 95.719,229.27 c -0.223,6.546 -0.399,13.093 -0.535,19.644 -0.133,6.606 -0.207,13.211 -0.207,19.816 0,8.907 0.07,18.141 0.925,27.008 0.399,4.082 1.086,9.801 2.782,13.571 l 1.191,2.648 -2.457,1.547 c -1.973,1.242 -4.074,2.355 -6.281,3.117 -1.949,0.676 -3.989,1.09 -6.055,1.09 -2.891,0 -5.598,-1 -7.203,-3.531 -1.574,-2.489 -1.774,-6.352 -1.774,-9.227 0,-7.207 0.383,-14.605 0.633,-21.816 0.375,-10.836 0.625,-21.684 0.625,-32.528 0,-5.191 -0.125,-10.406 -0.187,-15.601 -0.024,-1.953 -0.035,-3.906 -0.039,-5.86 H 75.82 c -4.601,0 -9.496,0.133 -14.047,0.864 -2.335,0.375 -5.277,1.035 -7.296,2.328 l -3.235,2.07 -1.601,-3.488 c -0.844,-1.836 -1.661,-3.75 -2.254,-5.684 -0.481,-1.566 -0.817,-3.218 -0.817,-4.867 0,-2.859 0.93,-5.543 3.371,-7.199 2.344,-1.586 5.743,-1.863 8.493,-1.863 4.656,0 9.589,0.39 14.242,0.648 6.859,0.383 13.746,0.641 20.617,0.641 5.629,0 11.652,-0.11 17.227,-0.942 2.789,-0.414 6.328,-1.168 8.746,-2.691 l 2.992,-1.891 1.711,3.098 c 0.824,1.488 1.551,3.066 2.066,4.687 0.453,1.446 0.738,2.946 0.738,4.465 0,3.289 -1.109,6.274 -3.82,8.25 -2.695,1.969 -6.344,2.434 -9.594,2.434 -3.082,0 -6.281,-0.211 -9.359,-0.363 -2.758,-0.133 -5.52,-0.266 -8.281,-0.375 z m 26.605,54.964 c 0.367,4.426 1.668,8.727 4.699,12.137 3.379,3.805 7.844,5.219 12.836,5.219 2.485,0 4.961,-0.344 7.313,-1.168 2.219,-0.781 4.211,-1.953 6.008,-3.477 l 2.769,-2.347 2.11,2.957 c 0.937,1.32 1.765,2.738 2.359,4.25 0.551,1.406 0.879,2.875 0.879,4.39 0,4.43 -3.086,7.371 -6.817,9.2 -4.371,2.14 -9.554,2.746 -14.371,2.746 -9.785,0 -18.757,-2.856 -25.449,-10.2 -6.883,-7.554 -9.187,-17.433 -9.187,-27.429 0,-10.403 2.465,-20.442 9.132,-28.625 6.192,-7.606 14.286,-11.532 24.102,-11.532 7.313,0 13.828,2.325 19.004,7.547 5.184,5.231 7.48,11.786 7.48,19.114 0,5.816 -1.898,11.093 -6.961,14.293 -5.398,3.41 -13.914,3.925 -20.132,3.925 -3.321,0 -6.641,-0.121 -9.95,-0.39 -1.945,-0.16 -3.886,-0.364 -5.824,-0.61 z m 94.528,-41.363 v -1.277 c 0,-5.52 -0.098,-11.25 -0.731,-16.739 -0.332,-2.871 -0.863,-6.359 -2.012,-9.027 l -1.132,-2.633 2.425,-1.519 c 1.661,-1.039 3.442,-1.957 5.297,-2.594 1.567,-0.535 3.235,-0.918 4.899,-0.918 2.734,0 5.32,0.871 6.886,3.231 1.508,2.277 1.731,5.703 1.731,8.355 0,2.254 -0.117,4.555 -0.207,6.805 -0.184,4.675 -0.399,9.351 -0.613,14.027 -0.497,10.746 -0.813,21.516 -0.813,32.277 0,8.329 -0.039,17.348 0.859,25.629 0.372,3.414 1.063,7.977 2.661,11.055 l 1.453,2.797 -2.707,1.613 c -1.754,1.043 -3.61,2 -5.539,2.668 -1.653,0.574 -3.383,0.949 -5.137,0.949 -2.563,0 -4.895,-0.933 -6.297,-3.148 -0.531,-0.836 -0.879,-1.801 -1.109,-2.817 -1.664,1.403 -3.457,2.649 -5.379,3.668 -4.063,2.153 -8.473,3.157 -13.063,3.157 -9.086,0 -16.703,-3.465 -22.558,-10.418 -6.215,-7.371 -8.559,-16.465 -8.559,-25.973 0,-11.004 3.047,-21.184 10.418,-29.476 7.082,-7.969 16.074,-11.922 26.73,-11.922 2.79,0 5.575,0.382 8.286,1.019 1.418,0.332 2.824,0.742 4.211,1.211 z m 72.707,68.734 c -1.668,1.403 -3.457,2.649 -5.379,3.668 -4.063,2.153 -8.473,3.157 -13.063,3.157 -9.086,0 -16.703,-3.465 -22.562,-10.418 -6.211,-7.371 -8.555,-16.465 -8.555,-25.973 0,-11.004 3.047,-21.184 10.414,-29.476 7.082,-7.969 16.078,-11.922 26.734,-11.922 2.79,0 5.571,0.382 8.282,1.019 1.422,0.332 2.828,0.742 4.215,1.211 v -1.277 c 0,-5.52 -0.102,-11.25 -0.731,-16.739 -0.332,-2.871 -0.863,-6.359 -2.012,-9.031 l -1.132,-2.629 2.425,-1.519 c 1.66,-1.039 3.442,-1.957 5.297,-2.594 1.567,-0.535 3.235,-0.918 4.899,-0.918 2.734,0 5.32,0.871 6.886,3.234 1.508,2.274 1.731,5.7 1.731,8.352 0,2.254 -0.117,4.555 -0.207,6.805 -0.184,4.675 -0.399,9.351 -0.613,14.027 -0.497,10.746 -0.813,21.516 -0.813,32.277 0,8.329 -0.043,17.348 0.859,25.629 0.371,3.41 1.059,7.977 2.661,11.055 l 1.453,2.797 -2.707,1.613 c -1.754,1.043 -3.61,2 -5.539,2.668 -1.649,0.574 -3.383,0.949 -5.137,0.949 -2.563,0 -4.891,-0.933 -6.297,-3.148 -0.527,-0.836 -0.879,-1.801 -1.109,-2.817 z m 46.984,1.719 c -3.477,-9.246 -7.008,-18.492 -10.727,-27.64 -2.183,-5.368 -4.464,-11.036 -7.121,-16.184 -0.859,-1.664 -4.781,-8.828 -6.836,-9.219 l -3.355,-0.64 0.719,-3.34 c 0.754,-3.524 1.953,-7.215 4.011,-10.207 1.801,-2.621 4.344,-4.739 7.672,-4.739 1.946,0 3.785,0.551 5.258,1.797 1.5,1.227 2.551,3.172 3.332,4.946 l 0.047,0.113 c 0.629,1.59 1.195,3.242 1.781,4.848 1.567,4.296 3.125,8.593 4.684,12.89 3.086,8.516 6.332,16.973 9.754,25.36 3.379,-8.27 6.664,-16.641 9.519,-25.059 1.36,-4 4.016,-11.758 4.016,-15.977 0,-0.375 -0.024,-0.753 -0.09,-1.125 -0.098,-0.511 -0.215,-1.015 -0.32,-1.523 l -0.606,-2.875 2.774,-0.965 c 0.41,-0.144 0.82,-0.301 1.226,-0.461 2.192,-0.851 5.254,-1.969 7.621,-1.969 2.289,0 4.391,0.79 5.953,2.481 1.528,1.652 2.184,3.73 2.184,5.961 0,2.269 -1.59,6.391 -2.383,8.527 -2.023,5.465 -4.301,10.879 -6.574,16.242 -5.227,12.321 -10.211,24.766 -14.742,37.36 -1.621,4.5 -3.18,9.023 -4.715,13.554 -1.672,4.95 -3.594,10.368 -6.066,14.977 -1.496,2.785 -3.871,6.586 -7.465,6.586 -2.543,0 -4.781,-1.332 -6.582,-3.031 -2.063,-1.938 -3.735,-4.399 -5.11,-6.86 l -1.293,-2.312 1.961,-1.785 c 2.016,-1.836 3.711,-4.012 5.16,-6.317 1.911,-3.039 3.446,-6.433 4.774,-9.761 z m 131.43,-50.226 c 2.929,1.566 5.593,3.59 7.754,6.199 3.593,4.344 5.125,9.57 5.125,15.172 0,9.836 -4.293,17.828 -11.84,24.039 -8.254,6.801 -18.223,9.492 -28.809,9.492 -4.312,0 -10.566,-0.34 -14.039,-3.23 -3.426,-2.86 -4.152,-7.786 -4.152,-11.985 0,-5.562 0.359,-11.367 0.566,-16.937 0.356,-9.422 0.567,-18.848 0.567,-28.274 0,-9.441 -0.051,-19.191 -0.848,-28.597 -0.363,-4.274 -0.969,-9.969 -2.563,-13.977 l -1.816,-4.57 h 4.918 c 5.926,0 11.852,-0.153 17.738,-0.403 0.914,-0.058 1.93,-0.148 2.875,-0.148 9.528,0 19.196,1.949 26.785,8.031 6.993,5.598 10.364,13.11 10.364,22.039 0,5.75 -1.528,11.094 -4.903,15.781 -2.113,2.938 -4.765,5.364 -7.722,7.368 z m 38.109,21.136 c 0.367,4.426 1.668,8.727 4.695,12.137 3.383,3.805 7.848,5.219 12.84,5.219 2.488,0 4.957,-0.344 7.313,-1.168 2.218,-0.781 4.215,-1.953 6.008,-3.477 l 2.769,-2.347 2.109,2.957 c 0.938,1.32 1.766,2.738 2.36,4.25 0.551,1.406 0.879,2.875 0.879,4.39 0,4.43 -3.086,7.371 -6.817,9.2 -4.371,2.14 -9.554,2.746 -14.371,2.746 -9.785,0 -18.758,-2.856 -25.449,-10.2 -6.887,-7.554 -9.188,-17.433 -9.188,-27.429 0,-10.403 2.465,-20.442 9.133,-28.625 6.192,-7.606 14.285,-11.532 24.102,-11.532 7.312,0 13.828,2.325 19.004,7.547 5.183,5.231 7.48,11.786 7.48,19.114 0,5.812 -1.898,11.093 -6.961,14.293 -5.398,3.41 -13.914,3.925 -20.133,3.925 -3.32,0 -6.64,-0.121 -9.949,-0.39 -1.945,-0.16 -3.886,-0.364 -5.824,-0.61 z m 85.293,28.321 c -1.715,1.293 -3.535,2.441 -5.453,3.371 -3.344,1.617 -6.906,2.504 -10.629,2.504 -6.641,0 -12.617,-2.067 -17.258,-6.895 -4.687,-4.875 -6.566,-11.082 -6.566,-17.765 0,-7.954 2.824,-14.758 8.933,-19.911 6.481,-5.468 14.731,-7.32 23.039,-7.32 1.606,0 3.211,0.055 4.813,0.176 0.594,0.043 1.191,0.09 1.785,0.144 -0.094,-2.816 -0.703,-5.832 -2.68,-7.925 -2.054,-2.176 -5.078,-2.743 -7.961,-2.743 -2.558,0 -5.355,0.364 -7.601,1.668 -2.086,1.215 -3.547,3.098 -4.625,5.227 l -1.254,2.477 -2.664,-0.782 c -2.031,-0.593 -3.84,-1.676 -5.106,-3.394 -1.285,-1.75 -1.777,-3.817 -1.777,-5.961 0,-5.106 3.07,-8.809 7.328,-11.301 4.942,-2.891 10.867,-3.77 16.516,-3.77 7.195,0 14.324,1.762 19.316,7.274 5.078,5.601 6.5,13.394 6.5,20.723 0,2.707 -0.101,5.437 -0.191,8.144 -0.098,3.027 -0.184,6.067 -0.184,9.094 0,4.859 0.121,10.133 0.953,14.93 0.485,2.769 1.309,5.832 2.825,8.23 l 1.683,2.66 -2.558,1.836 c -1.532,1.102 -3.161,2.133 -4.868,2.949 l -0.062,0.028 c -1.512,0.683 -3.164,1.203 -4.832,1.203 -2.727,0 -5.149,-1.067 -6.625,-3.363 -0.313,-0.465 -0.574,-0.973 -0.797,-1.508 z m 43.219,-63.578 c 1.023,-1.153 2.097,-2.235 3.222,-3.207 2.938,-2.536 6.43,-4.415 10.395,-4.415 3.191,0 5.996,1.208 8.23,3.481 2.262,2.309 3.383,5.215 3.383,8.445 0,2.289 -0.679,4.434 -1.867,6.387 -1.262,2.07 -3.019,3.832 -4.894,5.359 l -3.809,3.102 -1.484,-4.684 c -0.313,-0.988 -0.856,-2.437 -1.602,-3.195 -0.32,-0.324 -0.617,-0.484 -1.078,-0.484 -1.402,0 -3.027,1.449 -3.938,2.379 -2.257,2.316 -4.125,5.464 -5.621,8.371 -0.176,1.875 -0.301,3.757 -0.41,5.632 -0.117,2.043 -0.18,4.086 -0.18,6.129 0,5.614 0.172,11.442 0.969,17.004 0.504,3.492 1.32,7.305 2.852,10.504 l 1.308,2.746 -2.609,1.563 c -1.734,1.035 -3.57,1.922 -5.496,2.547 -1.828,0.597 -3.719,0.929 -5.645,0.929 -2.73,0 -5.371,-0.843 -6.937,-3.218 -1.516,-2.305 -1.68,-6.024 -1.68,-8.707 0,-4.79 0.395,-9.891 0.633,-14.688 0.387,-7.75 0.625,-15.516 0.625,-23.273 0,-4.297 -0.031,-8.926 -0.582,-13.192 -0.332,-2.582 -0.891,-5.179 -1.832,-7.613 l -1.188,-3.059 3.039,-1.238 c 0.973,-0.398 1.981,-0.703 3.008,-0.918 1.043,-0.219 2.11,-0.309 3.176,-0.309 2.934,0 5.762,0.801 7.777,3.036 1.184,1.308 1.871,2.902 2.235,4.586 z m -511.098,20.336 c 1.766,0.246 3.543,0.429 5.32,0.574 3.411,0.273 6.844,0.371 10.266,0.371 1.828,0 6.906,-0.098 8.496,-1.09 0.91,-0.57 1.008,-2.043 1.008,-2.988 0,-2.899 -0.711,-5.606 -2.848,-7.649 -2.226,-2.136 -5.246,-2.769 -8.246,-2.769 -3.773,0 -6.844,1.301 -9.394,4.09 -2.395,2.617 -3.793,6 -4.602,9.461 z m 92.684,23.156 c 0.082,-4.539 0.156,-9.078 0.211,-13.617 0.035,-2.911 0.086,-5.829 0.086,-8.739 0,-2.613 0.011,-5.234 -0.024,-7.851 -0.008,-0.891 -0.031,-1.785 -0.066,-2.68 -1.867,-0.816 -3.793,-1.523 -5.758,-2.055 -2.039,-0.547 -4.16,-0.906 -6.274,-0.906 -5.828,0 -10.683,1.875 -14.402,6.426 -4.262,5.219 -5.508,12.109 -5.508,18.68 0,5.316 0.977,10.925 4.407,15.164 2.925,3.613 6.722,5.129 11.336,5.129 3.128,0 6.019,-0.782 8.687,-2.418 2.887,-1.766 5.313,-4.391 7.305,-7.133 z m 73,-32.887 c -1.867,-0.816 -3.793,-1.523 -5.762,-2.051 -2.035,-0.551 -4.156,-0.91 -6.27,-0.91 -5.828,0 -10.683,1.875 -14.402,6.426 -4.262,5.219 -5.512,12.109 -5.512,18.68 0,5.316 0.981,10.925 4.411,15.164 2.925,3.613 6.722,5.129 11.335,5.129 3.129,0 6.02,-0.782 8.688,-2.418 2.887,-1.766 5.312,-4.391 7.305,-7.133 0.082,-4.539 0.156,-9.078 0.211,-13.617 0.035,-2.911 0.086,-5.829 0.086,-8.739 0,-2.613 0.011,-5.234 -0.02,-7.851 -0.016,-0.891 -0.035,-1.785 -0.07,-2.68 z m 151.074,12.387 v 6.754 c 0,3.492 0.023,6.988 0.062,10.48 0.039,3.61 0.09,7.223 0.145,10.836 0.352,0.043 0.699,0.078 1.051,0.113 1.187,0.106 2.379,0.153 3.57,0.153 4.711,0 9.309,-1.032 12.934,-4.188 3.214,-2.797 4.593,-6.289 4.593,-10.527 0,-4.07 -1.168,-7.559 -4.519,-10.012 -4.145,-3.031 -10.449,-3.648 -15.414,-3.648 -0.672,0 -1.34,0 -2.012,0.019 -0.137,0.008 -0.273,0.012 -0.41,0.02 z m -0.098,-15.547 c 0.055,0.004 0.11,0.008 0.168,0.012 0.949,0.066 1.903,0.089 2.856,0.089 4.984,0 10.656,-0.796 14.648,-4.046 3.426,-2.786 4.656,-6.59 4.656,-10.93 0,-4.203 -1.082,-8.055 -4.402,-10.805 -3.766,-3.113 -9.129,-3.883 -13.855,-3.883 -1.059,0 -2.114,0.024 -3.164,0.09 -0.176,0.008 -0.348,0.024 -0.524,0.035 -0.098,3.457 -0.168,6.918 -0.203,10.375 -0.063,6.356 -0.125,12.707 -0.18,19.063 z m 67.098,12.891 c 1.766,0.246 3.547,0.429 5.316,0.574 3.414,0.273 6.848,0.371 10.27,0.371 1.828,0 6.906,-0.098 8.496,-1.09 0.91,-0.57 1.004,-2.043 1.004,-2.988 0,-2.899 -0.707,-5.606 -2.844,-7.649 -2.226,-2.136 -5.246,-2.769 -8.246,-2.769 -3.773,0 -6.844,1.301 -9.395,4.09 -2.394,2.613 -3.792,6 -4.601,9.461 z m 82.512,12.976 c -0.707,-0.101 -1.418,-0.191 -2.129,-0.269 -1.145,-0.129 -2.309,-0.219 -3.461,-0.219 -3.957,0 -9.071,0.5 -12.36,2.941 -2.652,1.973 -3.488,4.832 -3.488,8.028 0,2.464 0.547,4.855 2.363,6.621 1.872,1.82 4.457,2.343 6.989,2.343 2.433,0 4.726,-0.519 6.91,-1.589 1.984,-0.977 3.715,-2.372 5.226,-3.977 -0.05,-1.473 -0.097,-2.949 -0.121,-4.426 -0.019,-1.422 -0.019,-2.844 -0.019,-4.265 0,-1.344 0.031,-2.696 0.066,-4.039 0.004,-0.379 0.016,-0.762 0.024,-1.149"
         style="fill:#ee3123;fill-opacity:1;fill-rule:evenodd;stroke:none"
         id="path16" /><path
         d="m 651.406,54.672 c 0.942,4.183 13.266,25.695 0.621,47.273 -5.328,9.09 -5.644,7.18 -11.484,13.407 0.656,1.925 2.434,4.605 3.578,6.984 5.973,12.402 7.543,23.223 8.324,24.699 6.782,-0.117 11.512,-0.519 16.766,3.418 4.059,3.043 7.051,6.836 9.219,13.067 5.25,15.105 0.613,43.445 -18.84,44.136 -6.832,0.242 -16.844,-4.433 -23.535,-7.414 -5.227,-2.324 -2.864,-1.457 -7.996,-0.644 -8.688,1.371 -11.973,-6.504 -14.161,-7.141 -7.164,-2.078 -4.941,4.621 -12.875,7.465 -3.316,1.187 -5.578,0.57 -8.628,-0.488 -4.848,-1.68 -25.2,16.589 -38.434,3.445 -12.106,-12.016 -12.746,-38.274 -0.375,-50.484 4.644,-4.582 8.168,-4.903 15.293,-5.645 0.965,-3.605 1.355,-8.133 2.332,-11.797 1,-3.773 2.625,-7.68 3.41,-10.867 -1.246,-1.133 -2.988,-2.106 -4.34,-3.25 -4.75,-4.035 -7.711,-7.996 -10.422,-14.363 -1.691,-3.969 -2.937,-8.856 -3.425,-13.715 -0.696,-6.938 0.289,-10.754 0.386,-16.942 -4.257,-4.242 -7.754,-5.601 -10.543,-15.671 -2.203,-7.965 -1.183,-16.793 2.02,-23.172 7.043,-14.047 20.719,-15.965 31.34,-4.407 2.054,-0.968 4.886,-3.632 7.48,-5.058 6.285,-3.453 12.399,-5.293 19.543,-5.215 4.192,0.043 7.25,1.18 10.883,1.512 0.832,-1.508 1.328,-2.696 2.172,-4.168 6.254,-10.891 19.508,-12.821 27.75,-4.848 3.887,3.762 7.492,9.168 8.644,17.461 1.438,10.32 -1.379,16.191 -4.703,22.422"
         style="fill:#050505;fill-opacity:1;fill-rule:evenodd;stroke:none"
         id="path18" /><path
         d="m 648.547,54.762 c 6.902,15.051 10.566,32.285 0.648,47.289 -8.215,12.429 -19.965,18.418 -33.418,22.008 -25.511,6.8 -55.98,1.312 -57.629,-34.84 -0.273,-6.004 0.649,-9.539 0.942,-14.688 -3.36,-3.414 -7.344,-3.769 -10.629,-14.011 -2.387,-7.438 -1.531,-16.348 1.637,-22.403 7.058,-13.484 20.695,-13.437 29.004,-1.832 l 7.668,-5.64 c 6.16,-3.872 13.765,-5.856 20.835,-5.563 4.297,0.176 7.141,1.375 10.872,1.981 1.914,-2.782 1.785,-4.79 4.351,-7.887 15.36,-18.555 37.195,4.871 29.945,27.015 -1.875,5.731 -3.531,6.575 -4.226,8.571"
         style="fill:#ae7239;fill-opacity:1;fill-rule:evenodd;stroke:none"
         id="path20" /><path
         d="m 568.691,149.879 c 24.164,4.187 30.579,54.305 -1.992,55.211 -13.008,0.363 -20.609,-13.215 -20.14,-29.426 0.425,-14.652 9.398,-27.996 22.132,-25.785"
         style="fill:#ae7239;fill-opacity:1;fill-rule:evenodd;stroke:none"
         id="path22" /><path
         d="m 660.656,149.898 c 11.742,1.985 19.364,15.551 17.199,32.325 -1.953,15.175 -10.273,25.726 -24.648,22.148 -31.246,-7.773 -15.516,-58.351 7.449,-54.473"
         style="fill:#ae7239;fill-opacity:1;fill-rule:evenodd;stroke:none"
         id="path24" /><path
         d="m 650.074,149.953 c -7.89,2.781 -14.601,16.012 -15.734,27.195 -0.703,6.934 0.336,8.379 1.176,14.149 -4.399,7.648 -12.153,7.453 -17.993,1.617 -4.882,-4.883 -5.265,-16.734 -2.269,-24.387 2.988,-7.64 8.199,-12.527 10.953,-18.793 4.246,-9.664 1.691,-17.273 -0.789,-26.472 0.066,-0.074 12.105,-6.637 12.68,-6.871 3.64,5.902 11.746,23.222 11.976,33.562"
         style="fill:#ae7239;fill-opacity:1;fill-rule:evenodd;stroke:none"
         id="path26" /><path
         d="m 614.602,81.324 c 11.664,2.5 20.183,15.883 16.679,26.821 -3.16,9.878 -15.742,15.707 -27.078,15.48 -29.723,-0.59 -16.117,-47.977 10.399,-42.301"
         style="fill:#050505;fill-opacity:1;fill-rule:evenodd;stroke:none"
         id="path28" /><path
         d="m 613.02,82.047 c 10.097,1.539 20.007,12.359 17.925,23.871 -1.922,10.637 -14.531,16.152 -24.851,16.613 -30.43,1.352 -17.512,-44.207 6.926,-40.484"
         style="fill:#ffffff;fill-opacity:1;fill-rule:evenodd;stroke:none"
         id="path30" /><path
         d="m 590.684,128.313 c -3.352,28.14 8.98,27.472 15.906,41.226 3.265,6.488 4.355,16.488 -0.531,23.106 -4.77,6.449 -12.696,7.621 -17.797,0.785 6.609,-15.567 -0.59,-39.543 -17.227,-45.164 -0.449,-5.496 3.926,-19.348 5.731,-23.563 5.004,1.516 8.156,2.922 13.918,3.61"
         style="fill:#ae7239;fill-opacity:1;fill-rule:evenodd;stroke:none"
         id="path32" /><path
         d="m 613.184,189.75 -3.094,-0.133 c -0.254,-4.777 4.883,-15.297 -8.504,-30.039 -2.559,-2.816 -6.441,-6.961 -8.188,-11.562 -1.566,-4.125 -2.73,-15.098 -0.82,-19.395 5.852,-0.418 10.699,0.047 16.61,-1 5.351,-0.941 9.953,-2.91 14.585,-3.851 10.875,33.199 -12.683,30.109 -12.085,56.507 0.097,4.227 1.097,6.203 1.496,9.473"
         style="fill:#fed09e;fill-opacity:1;fill-rule:evenodd;stroke:none"
         id="path34" /><path
         d="m 657.105,177.359 c 5.36,1.676 8.864,6.704 8.067,15.11 -0.34,3.574 -1.863,6.351 -4.344,7.058 -4.558,1.301 -4.918,-2.964 -6.93,-4.308 -2.445,-1.637 -4.828,2.941 -8.398,-0.258 -6.102,-5.477 1.656,-20.719 11.605,-17.602"
         style="fill:#050505;fill-opacity:1;fill-rule:evenodd;stroke:none"
         id="path36" /><path
         d="m 570.699,194.953 c -1.402,1.945 -2.457,5.32 -6.258,4.692 -7.621,-1.258 -6.703,-19.309 2.856,-22.317 10.051,-3.156 17.535,11.274 12.215,17.266 -2.875,3.238 -5.477,-0.137 -8.813,0.359"
         style="fill:#050505;fill-opacity:1;fill-rule:evenodd;stroke:none"
         id="path38" /><path
         d="m 657.047,178.332 c 5.082,1.664 8.183,6.211 7.32,14.363 -0.344,3.262 -1.918,5.879 -4.617,6.059 -3.75,0.242 -3.93,-4.012 -6.059,-4.754 -2.808,-0.977 -4.519,3.141 -7.8,0.016 -1.989,-1.895 -2.379,-4.895 -1.09,-8.168 1.832,-4.641 6.183,-9.5 12.246,-7.516"
         style="fill:#fed09e;fill-opacity:1;fill-rule:evenodd;stroke:none"
         id="path40" /><path
         d="m 572.922,178.406 c 10.113,3.739 9.836,19.942 0.937,16.035 -4.597,-2.023 -4.097,1.856 -6.238,3.516 -5.547,4.301 -8.644,-5.16 -6.832,-12.051 1.41,-5.359 6.203,-9.691 12.133,-7.5"
         style="fill:#fed09e;fill-opacity:1;fill-rule:evenodd;stroke:none"
         id="path42" /><path
         d="m 573.109,42.531 c -4.394,3.047 -9.828,17.364 -11.992,22.235 -9.187,-4.414 -8.836,-25.739 2.926,-27.161 3.973,-0.476 7.695,1.614 9.066,4.926"
         style="fill:#fed09e;fill-opacity:1;fill-rule:evenodd;stroke:none"
         id="path44" /><path
         d="m 643.996,46.102 c -1.004,-0.536 -5.105,-6.043 -8.211,-8.856 -3.316,-3.008 -6.008,-4.824 -9.758,-7.195 2.59,-10.551 18.211,-10.906 20.418,4.234 0.645,4.414 -0.394,9.305 -2.449,11.817"
         style="fill:#fed09e;fill-opacity:1;fill-rule:evenodd;stroke:none"
         id="path46" /><path
         d="m 659.629,165.371 c 0.09,-0.094 0.215,-0.383 0.258,-0.293 l 1.008,-1.379 c 4.05,-5.554 9.027,-1.148 7.609,5.211 -1.574,7.047 -9.141,8.524 -9.168,-1.285 -1.16,1.953 -2.434,5.199 -5.852,3.836 -2.148,-0.852 -3.41,-4.566 -2.754,-8.172 1.231,-6.766 8.493,-7.941 8.899,2.082"
         style="fill:#050505;fill-opacity:1;fill-rule:evenodd;stroke:none"
         id="path48" /><path
         d="m 565.418,168.164 c -0.523,9.918 -8.211,7.02 -9.316,0.215 -0.543,-3.332 0.671,-6.606 3.078,-7.086 3.394,-0.68 4.73,2.57 5.922,4.809 -0.02,-10.172 6.953,-10.204 8.738,-3.34 1.453,5.582 -2.531,13.156 -7.746,6.23 l -0.438,-0.547 c -0.054,-0.07 -0.156,-0.187 -0.238,-0.281"
         style="fill:#050505;fill-opacity:1;fill-rule:evenodd;stroke:none"
         id="path50" /><path
         d="m 619.168,66.156 c 6.695,3.129 5.082,16.637 -1.488,13.481 -5.742,-2.766 -4.95,-16.485 1.488,-13.481"
         style="fill:#231f20;fill-opacity:1;fill-rule:evenodd;stroke:none"
         id="path52" /><path
         d="m 592.785,71.719 c 2.559,1.14 4.102,4.144 3.465,8.711 -0.449,3.199 -2.742,6.855 -6.059,5.312 -5.601,-2.605 -2.988,-16.512 2.594,-14.023"
         style="fill:#231f20;fill-opacity:1;fill-rule:evenodd;stroke:none"
         id="path54" /><path
         d="m 580.832,165.121 c 2.691,1.856 2.422,5.633 1.305,8.32 -0.879,2.11 -3.364,4.469 -5.957,3.016 -4.7,-2.641 -0.782,-15.086 4.652,-11.336"
         style="fill:#050505;fill-opacity:1;fill-rule:evenodd;stroke:none"
         id="path56" /><path
         d="m 671.566,172.93 c 1.473,0.605 1.954,0.625 2.504,2.679 1.207,4.477 -3.101,9.422 -7.011,8.094 -5.645,-1.914 -1.18,-13.113 4.507,-10.773"
         style="fill:#050505;fill-opacity:1;fill-rule:evenodd;stroke:none"
         id="path58" /><path
         d="m 555.621,172.91 c 7.109,2.567 5.32,12.77 -0.75,10.785 -6.523,-2.132 -5.371,-12.996 0.75,-10.785"
         style="fill:#050505;fill-opacity:1;fill-rule:evenodd;stroke:none"
         id="path60" /><path
         d="m 647.266,165.066 c 2.492,1.524 3.738,4.559 3.238,7.856 -0.469,3.086 -2.953,4.976 -5.539,3.418 -5.188,-3.121 -3.512,-14.832 2.301,-11.274"
         style="fill:#050505;fill-opacity:1;fill-rule:evenodd;stroke:none"
         id="path62" /><path
         d="m 656.508,159.352 c 4.285,2.316 2.222,13.55 -2.957,11.105 -4.227,-1.996 -1.965,-13.766 2.957,-11.105"
         style="fill:#fed09e;fill-opacity:1;fill-rule:evenodd;stroke:none"
         id="path64" /><path
         d="m 561.469,162.629 c 4.941,2.832 3.758,13.199 -1.696,10.508 -4.488,-2.215 -3.859,-13.684 1.696,-10.508"
         style="fill:#fed09e;fill-opacity:1;fill-rule:evenodd;stroke:none"
         id="path66" /><path
         d="m 666.215,162.684 c 4.215,3.117 0.129,13.058 -4.336,10.429 -4.387,-2.582 0.012,-13.625 4.336,-10.429"
         style="fill:#fed09e;fill-opacity:1;fill-rule:evenodd;stroke:none"
         id="path68" /><path
         d="m 570.691,159.574 c 1.215,0.739 1.551,0.824 2.164,2.551 1.665,4.691 -0.875,10.246 -4.46,8.273 -4.2,-2.316 -2.739,-13.894 2.296,-10.824"
         style="fill:#fed09e;fill-opacity:1;fill-rule:evenodd;stroke:none"
         id="path70" /><path
         d="m 647.035,165.875 c 4.567,2.977 3.195,11.883 -1.484,9.742 -4.801,-2.195 -3.34,-12.883 1.484,-9.742"
         style="fill:#fed09e;fill-opacity:1;fill-rule:evenodd;stroke:none"
         id="path72" /><path
         d="m 671.227,173.762 c 5.043,1.898 0.933,10.308 -3.817,9.066 -4.793,-1.25 -0.949,-10.859 3.817,-9.066"
         style="fill:#fed09e;fill-opacity:1;fill-rule:evenodd;stroke:none"
         id="path74" /><path
         d="m 580.563,165.93 c 3.886,2.664 0.019,12.109 -4.04,9.644 -4.082,-2.48 -0.171,-12.527 4.04,-9.644"
         style="fill:#fed09e;fill-opacity:1;fill-rule:evenodd;stroke:none"
         id="path76" /><path
         d="m 555.027,173.66 c 5.614,1.289 5.899,10.297 0.516,9.246 -5.371,-1.051 -5.934,-10.492 -0.516,-9.246"
         style="fill:#fed09e;fill-opacity:1;fill-rule:evenodd;stroke:none"
         id="path78" /><path
         d="m 593.699,77.883 c -2.703,2.281 -4.922,0.277 -3.937,-2.629 0.676,-1.996 4.601,-3.074 3.937,2.629"
         style="fill:#e6e7e8;fill-opacity:1;fill-rule:evenodd;stroke:none"
         id="path80" /><path
         d="m 618.945,68.383 c 2.321,1.582 0.653,6.383 -2.121,4.558 -2.211,-1.457 -0.457,-6.32 2.121,-4.558"
         style="fill:#e6e7e8;fill-opacity:1;fill-rule:evenodd;stroke:none"
         id="path82" /><g
         id="g84"
         transform="scale(1,-1)"><path
           d="m 610.902,-107.445 c -2.132,-1.942 -8.672,-1.582 -7.234,1.308 0.105,-0.433 5.789,-3.394 6.871,1.055 0.352,5.156 -0.25,3.352 -3.742,5.621 -5.75,3.734 -1.879,7.207 4.394,7.231 3.258,0.015 8.02,-1.403 7.09,-4.208 -0.902,-2.714 -6.039,-4.488 -6.355,-5.031 -0.313,-1.261 -0.067,-3.957 0.004,-5.082 4.258,-2.351 4.422,0.188 6.863,0.567 0.297,-3.68 -5.406,-3.297 -7.891,-1.461 z"
           style="fill:#ae7239;fill-opacity:1;fill-rule:evenodd;stroke:#806a51;stroke-width:0.5;stroke-linecap:butt;stroke-linejoin:miter;stroke-miterlimit:2.61313;stroke-dasharray:none;stroke-opacity:1"
           id="path86" /></g><g
         id="g88"
         transform="scale(1,-1)"><path
           d="m 613.602,-95.258 c -1.098,0 -1.989,-0.414 -1.989,-0.918 0,-0.508 0.891,-0.918 1.989,-0.918 1.097,0 1.984,0.41 1.984,0.918 0,0.504 -0.887,0.918 -1.984,0.918 z"
           style="fill:#ffffff;fill-opacity:1;fill-rule:evenodd;stroke:#806a51;stroke-width:0.5;stroke-linecap:butt;stroke-linejoin:miter;stroke-miterlimit:2.61313;stroke-dasharray:none;stroke-opacity:1"
           id="path90" /></g><g
         id="g92"
         transform="scale(1,-1)"><path
           d="m 608.434,-95.281 c -1.098,0 -1.989,-0.407 -1.989,-0.907 0,-0.5 0.891,-0.906 1.989,-0.906 1.097,0 1.988,0.406 1.988,0.906 0,0.5 -0.891,0.907 -1.988,0.907 z"
           style="fill:#ffffff;fill-opacity:1;fill-rule:evenodd;stroke:#806a51;stroke-width:0.5;stroke-linecap:butt;stroke-linejoin:miter;stroke-miterlimit:2.61313;stroke-dasharray:none;stroke-opacity:1"
           id="path94" /></g><path
         d="m 352.551,421.91 c -3.328,-3.25 -6.356,-6.656 -9.09,-10.25 -2.734,-3.582 -5.211,-7.347 -7.422,-11.305 -2.867,1.665 -5.051,3.735 -6.543,6.266 -1.496,2.508 -2.25,5.305 -2.25,8.414 0,4.063 1.172,7.328 3.527,9.793 2.36,2.449 5.497,3.676 9.415,3.676 2.425,0 4.66,-0.551 6.691,-1.633 2.035,-1.101 3.934,-2.75 5.672,-4.961 z m 4.617,4.41 c -2.895,3.219 -5.777,5.559 -8.645,6.985 -2.867,1.445 -6.058,2.168 -9.546,2.168 -5.657,0 -10.168,-1.743 -13.508,-5.243 -3.34,-3.484 -5.008,-8.179 -5.008,-14.066 0,-4.633 1.09,-8.762 3.285,-12.418 2.195,-3.641 5.442,-6.687 9.723,-9.137 -0.606,-1.664 -1.051,-3.25 -1.348,-4.789 -0.281,-1.539 -0.43,-3.074 -0.43,-4.644 0,-5.34 1.469,-9.578 4.403,-12.715 2.937,-3.141 6.91,-4.711 11.906,-4.711 3,0 5.453,0.598 7.352,1.789 1.898,1.195 2.839,2.703 2.839,4.504 0,1.008 -0.281,1.934 -0.859,2.781 -0.578,0.848 -1.457,1.586 -2.613,2.231 -1.024,-1.508 -2.196,-2.625 -3.5,-3.344 -1.293,-0.723 -2.75,-1.086 -4.324,-1.086 -2.532,0 -4.54,0.957 -6.02,2.855 -1.496,1.903 -2.234,4.493 -2.234,7.774 0,4.269 1.441,8.887 4.32,13.848 2.883,4.972 7.367,10.531 13.453,16.703 1.078,-2.422 1.887,-4.789 2.426,-7.082 0.539,-2.293 0.808,-4.52 0.808,-6.672 v -0.457 c 0.715,-0.188 1.344,-0.313 1.899,-0.391 0.551,-0.078 1.051,-0.109 1.496,-0.109 1.238,0 2.141,0.281 2.703,0.847 0.567,0.567 0.848,1.477 0.848,2.731 0,1.508 -0.457,3.547 -1.387,6.137 -0.914,2.593 -2.301,5.761 -4.172,9.5 2.125,1.929 4.039,3.359 5.723,4.316 1.695,0.957 3.219,1.43 4.59,1.43 0.179,0 0.394,-0.016 0.609,-0.047 0.227,-0.031 0.484,-0.078 0.766,-0.141 0.308,0.766 0.55,1.504 0.726,2.211 0.176,0.707 0.258,1.414 0.258,2.121 0,1.414 -0.34,2.543 -1.012,3.375 -0.66,0.832 -1.547,1.239 -2.652,1.239 -1.441,0 -3.285,-0.739 -5.535,-2.196 -2.25,-1.461 -4.684,-3.547 -7.34,-6.297 z m 45.789,-2.34 c 1.129,0.708 2.289,1.227 3.457,1.571 1.176,0.332 2.414,0.504 3.734,0.504 3.137,0 5.598,-0.817 7.407,-2.465 1.804,-1.633 2.703,-3.863 2.703,-6.688 0,-3.375 -2.356,-7.285 -7.055,-11.726 -0.027,-0.031 -0.039,-0.047 -0.039,-0.047 -0.082,-0.063 -0.203,-0.176 -0.363,-0.316 -6.828,-6.356 -10.235,-11.961 -10.235,-16.844 0,-2.227 0.418,-4.442 1.266,-6.625 0.832,-2.164 2.031,-4.16 3.582,-5.965 2.344,-2.668 4.859,-4.711 7.539,-6.106 2.68,-1.398 5.442,-2.089 8.281,-2.089 2.047,0 3.598,0.394 4.621,1.195 1.024,0.801 1.536,1.992 1.536,3.594 0,0.55 -0.176,1.289 -0.512,2.183 -0.336,0.91 -0.836,1.977 -1.496,3.199 -1.024,-0.484 -2.074,-0.859 -3.137,-1.113 -1.062,-0.265 -2.141,-0.39 -3.246,-0.39 -3.367,0 -5.992,0.878 -7.906,2.636 -1.899,1.774 -2.852,4.176 -2.852,7.239 0,1.851 0.391,3.515 1.156,5.019 0.782,1.492 2.235,3.285 4.364,5.371 0.308,0.313 0.781,0.754 1.375,1.336 7.148,7 10.718,12.918 10.718,17.754 0,1.852 -0.285,3.656 -0.847,5.43 -0.567,1.789 -1.414,3.531 -2.547,5.246 -1.91,2.855 -4.309,5.055 -7.148,6.605 -2.856,1.555 -5.942,2.325 -9.254,2.325 -2.235,0 -3.934,-0.454 -5.075,-1.364 -1.148,-0.894 -1.711,-2.23 -1.711,-3.988 0,-0.785 0.133,-1.648 0.418,-2.543 0.266,-0.91 0.7,-1.883 1.266,-2.938 z M 448,432.082 c -1.117,0.707 -2.141,1.223 -3.109,1.57 -0.957,0.328 -1.871,0.5 -2.707,0.5 -1.266,0 -2.141,-0.422 -2.614,-1.269 -0.472,-0.832 -0.715,-2.418 -0.715,-4.758 0,-2.918 0.149,-8.461 0.446,-16.625 0.297,-8.176 0.445,-14.91 0.445,-20.219 0,-6.562 -0.176,-11.539 -0.512,-14.929 -0.351,-3.391 -0.929,-5.981 -1.75,-7.754 1.051,-0.707 2.075,-1.223 3.043,-1.571 0.969,-0.328 1.899,-0.5 2.774,-0.5 1.304,0 2.207,0.375 2.679,1.145 0.473,0.769 0.715,2.34 0.715,4.695 0,1.961 -0.148,7.11 -0.445,15.461 -0.297,8.336 -0.445,15.684 -0.445,22.039 0,6.797 0.164,11.774 0.5,14.899 0.336,3.125 0.902,5.574 1.695,7.316 z m 15.391,-25.699 c 1.738,0.347 3.652,0.597 5.754,0.769 2.085,0.172 4.347,0.25 6.773,0.25 3.285,0 5.492,-0.343 6.598,-1.05 1.105,-0.707 1.656,-1.977 1.656,-3.832 0,-2.778 -0.836,-4.989 -2.492,-6.622 -1.657,-1.617 -3.918,-2.433 -6.785,-2.433 -3.059,0 -5.602,1.129 -7.625,3.406 -2.032,2.262 -3.325,5.445 -3.879,9.512 z m 22.976,18.07 c 0.578,0.832 0.996,1.602 1.266,2.324 0.281,0.719 0.418,1.411 0.418,2.086 0,1.664 -1.067,3.016 -3.18,4.082 -2.113,1.051 -4.875,1.586 -8.293,1.586 -6.289,0 -11.219,-1.996 -14.773,-5.996 -3.571,-4.004 -5.348,-9.531 -5.348,-16.578 0,-7.113 1.793,-12.937 5.387,-17.457 3.597,-4.52 8.203,-6.781 13.832,-6.781 4.347,0 7.902,1.445 10.691,4.316 2.789,2.887 4.188,6.563 4.188,11.035 0,3.532 -1.157,6.047 -3.473,7.551 -2.316,1.492 -6.25,2.246 -11.797,2.246 -2.086,0 -4.164,-0.078 -6.222,-0.25 -2.075,-0.172 -4.11,-0.426 -6.141,-0.754 v 0.645 c 0,4.769 1.211,8.555 3.637,11.347 2.41,2.778 5.711,4.176 9.855,4.176 1.953,0 3.758,-0.297 5.414,-0.894 1.656,-0.598 3.164,-1.492 4.539,-2.684 z m 16.711,-18.07 c 1.738,0.347 3.649,0.597 5.75,0.769 2.09,0.172 4.352,0.25 6.774,0.25 3.285,0 5.496,-0.343 6.601,-1.05 1.102,-0.707 1.652,-1.977 1.652,-3.832 0,-2.778 -0.832,-4.989 -2.488,-6.622 -1.656,-1.617 -3.918,-2.433 -6.789,-2.433 -3.055,0 -5.601,1.129 -7.621,3.406 -2.035,2.262 -3.324,5.445 -3.879,9.512 z m 22.973,18.07 c 0.582,0.832 0.996,1.602 1.269,2.324 0.282,0.719 0.414,1.411 0.414,2.086 0,1.664 -1.062,3.016 -3.175,4.082 -2.118,1.051 -4.875,1.586 -8.297,1.586 -6.289,0 -11.219,-1.996 -14.774,-5.996 -3.566,-4.004 -5.343,-9.531 -5.343,-16.578 0,-7.113 1.789,-12.937 5.386,-17.457 3.594,-4.52 8.199,-6.781 13.828,-6.781 4.352,0 7.907,1.445 10.692,4.316 2.789,2.887 4.191,6.563 4.191,11.035 0,3.532 -1.16,6.047 -3.476,7.551 -2.317,1.492 -6.25,2.246 -11.797,2.246 -2.086,0 -4.16,-0.078 -6.223,-0.25 -2.07,-0.172 -4.105,-0.426 -6.141,-0.754 v 0.645 c 0,4.769 1.215,8.555 3.641,11.347 2.406,2.778 5.707,4.176 9.856,4.176 1.953,0 3.757,-0.297 5.414,-0.894 1.656,-0.598 3.164,-1.492 4.535,-2.684 z m 19.422,-0.566 c 1.683,1.289 3.406,2.277 5.172,2.953 1.761,0.676 3.539,1.004 5.316,1.004 4.109,0 7.488,-1.555 10.141,-4.664 2.652,-3.106 3.984,-7.063 3.984,-11.852 0,-4.961 -1.211,-8.945 -3.648,-11.945 -2.438,-3 -5.657,-4.504 -9.68,-4.504 -1.711,0 -3.516,0.391 -5.414,1.176 -1.887,0.769 -3.774,1.914 -5.629,3.422 -0.055,2.871 -0.11,6.359 -0.149,10.406 -0.027,4.066 -0.07,8.73 -0.093,14.004 z m -0.192,6.531 c -0.027,0.645 -0.051,1.352 -0.066,2.117 -0.012,0.77 -0.012,1.871 -0.012,3.313 0,4.144 0.16,7.55 0.485,10.207 0.324,2.652 0.832,4.8 1.535,6.465 -1.16,0.707 -2.184,1.21 -3.071,1.523 -0.89,0.301 -1.75,0.457 -2.586,0.457 -1.16,0 -1.968,-0.379 -2.437,-1.148 -0.473,-0.766 -0.715,-2.164 -0.715,-4.188 0,-2.152 0.176,-7.441 0.527,-15.875 0.348,-8.445 0.524,-15.805 0.524,-22.133 0,-6.625 -0.16,-11.461 -0.469,-14.519 -0.324,-3.047 -0.836,-5.559 -1.551,-7.524 0.578,-0.218 1.145,-0.375 1.696,-0.484 0.554,-0.109 1.16,-0.156 1.793,-0.156 1.332,0 2.398,0.437 3.164,1.332 0.754,0.898 1.172,2.136 1.226,3.738 1.91,-1.633 3.985,-2.891 6.207,-3.754 2.223,-0.879 4.403,-1.316 6.532,-1.316 5.332,0 9.789,2.07 13.371,6.215 3.57,4.128 5.359,9.292 5.359,15.449 0,6.625 -2.02,12.289 -6.059,16.984 -4.027,4.695 -8.875,7.031 -14.531,7.031 -2.152,0 -4.105,-0.297 -5.859,-0.894 -1.75,-0.598 -3.434,-1.555 -5.063,-2.84 z m 127.098,-60.141 c -0.469,1.993 -0.82,4.036 -1.035,6.137 -0.231,2.106 -0.34,4.399 -0.34,6.879 0,9.902 0.543,18.945 1.617,27.172 1.078,8.211 2.668,15.324 4.77,21.336 -1.266,0.801 -2.453,1.394 -3.559,1.773 -1.102,0.391 -2.18,0.578 -3.23,0.578 -1.106,0 -1.965,-0.281 -2.598,-0.832 -0.633,-0.547 -1.09,-1.441 -1.375,-2.668 -0.16,-0.738 -0.457,-6.324 -0.875,-16.797 -0.418,-10.468 -1.012,-20.691 -1.777,-30.66 -5.497,12.075 -11.286,25.309 -17.36,39.672 -1.101,2.668 -1.871,4.473 -2.289,5.43 -0.496,1.164 -0.996,1.996 -1.48,2.48 -0.485,0.489 -1.051,0.739 -1.684,0.739 -1.25,0 -2.559,-1.68 -3.906,-5.055 -0.309,-0.77 -0.567,-1.367 -0.754,-1.789 -4.254,-10.094 -7.852,-18.492 -10.785,-25.227 -2.938,-6.718 -5.348,-12.074 -7.246,-16.058 -0.446,7.754 -0.875,17.265 -1.278,28.539 -0.406,11.254 -0.879,17.769 -1.402,19.512 -0.27,0.957 -0.66,1.648 -1.184,2.074 -0.527,0.422 -1.238,0.64 -2.129,0.64 -0.687,0 -1.523,-0.187 -2.503,-0.578 -0.985,-0.379 -2.129,-0.972 -3.45,-1.773 2.047,-5.985 3.61,-13.094 4.688,-21.336 1.078,-8.242 1.617,-17.395 1.617,-27.457 0,-2.418 -0.109,-4.66 -0.34,-6.735 -0.215,-2.07 -0.535,-4.066 -0.969,-5.996 0.875,-0.894 1.672,-1.539 2.399,-1.929 0.715,-0.395 1.496,-0.598 2.301,-0.598 2.562,0 6.64,6.781 12.281,20.359 2.129,5.121 3.851,9.2 5.16,12.231 2.977,6.875 5.008,11.414 6.102,13.609 1.089,2.215 1.816,3.313 2.152,3.313 0.715,0 4.297,-7.66 10.773,-22.981 2.68,-6.312 4.836,-11.367 6.438,-15.133 1.738,-4.097 3.273,-7.035 4.594,-8.777 1.332,-1.742 2.648,-2.621 3.972,-2.621 0.754,0 1.508,0.203 2.219,0.598 0.727,0.39 1.551,1.035 2.465,1.929 z m 17.937,36.106 c 1.739,0.347 3.649,0.597 5.75,0.769 2.09,0.172 4.352,0.25 6.774,0.25 3.285,0 5.496,-0.343 6.601,-1.05 1.102,-0.707 1.657,-1.977 1.657,-3.832 0,-2.778 -0.836,-4.989 -2.493,-6.622 -1.656,-1.617 -3.917,-2.433 -6.789,-2.433 -3.054,0 -5.601,1.129 -7.621,3.406 -2.035,2.262 -3.324,5.445 -3.879,9.512 z m 22.977,18.07 c 0.578,0.832 0.996,1.602 1.266,2.324 0.281,0.719 0.414,1.411 0.414,2.086 0,1.664 -1.063,3.016 -3.176,4.082 -2.113,1.051 -4.875,1.586 -8.297,1.586 -6.289,0 -11.219,-1.996 -14.773,-5.996 -3.567,-4.004 -5.344,-9.531 -5.344,-16.578 0,-7.113 1.789,-12.937 5.387,-17.457 3.593,-4.52 8.199,-6.781 13.828,-6.781 4.351,0 7.906,1.445 10.695,4.316 2.785,2.887 4.187,6.563 4.187,11.035 0,3.532 -1.16,6.047 -3.476,7.551 -2.316,1.492 -6.246,2.246 -11.797,2.246 -2.086,0 -4.16,-0.078 -6.219,-0.25 -2.074,-0.172 -4.109,-0.426 -6.14,-0.754 v 0.645 c 0,4.769 1.211,8.555 3.632,11.347 2.411,2.778 5.711,4.176 9.86,4.176 1.953,0 3.758,-0.297 5.414,-0.894 1.656,-0.598 3.164,-1.492 4.539,-2.684 z m 41.246,-3.91 c 0.055,-3.012 0.109,-6.23 0.149,-9.656 0.039,-3.403 0.054,-5.336 0.054,-5.774 0,-2.324 0,-4.05 -0.015,-5.195 -0.012,-1.133 -0.055,-2.184 -0.106,-3.172 -1.859,-0.926 -3.609,-1.601 -5.226,-2.043 -1.618,-0.453 -3.153,-0.672 -4.594,-0.672 -4.606,0 -8.238,1.676 -10.918,5.035 -2.68,3.364 -4.028,7.93 -4.028,13.692 0,4.789 1.106,8.57 3.313,11.363 2.207,2.797 5.195,4.192 8.957,4.192 2.434,0 4.672,-0.641 6.703,-1.915 2.02,-1.269 3.934,-3.218 5.711,-5.855 z m 0.445,-30.172 v -4.035 c 0,-4.691 -0.164,-8.445 -0.484,-11.27 -0.312,-2.812 -0.797,-4.992 -1.457,-6.562 1.051,-0.676 2.047,-1.18 2.965,-1.492 0.914,-0.328 1.738,-0.485 2.449,-0.485 1.266,0 2.141,0.375 2.641,1.145 0.5,0.769 0.754,2.199 0.754,4.285 0,1.316 -0.176,5.856 -0.528,13.609 -0.347,7.774 -0.523,14.883 -0.523,21.352 0,7.848 0.187,13.562 0.566,17.109 0.375,3.567 1.024,6.25 1.938,8.055 -1.157,0.707 -2.207,1.223 -3.164,1.57 -0.942,0.328 -1.805,0.5 -2.598,0.5 -1.051,0 -1.793,-0.343 -2.238,-1.05 -0.43,-0.707 -0.645,-1.914 -0.645,-3.641 0,-0.582 0.012,-1.035 0.039,-1.352 0.028,-0.328 0.043,-0.625 0.043,-0.894 -2.047,2.574 -4.187,4.476 -6.426,5.683 -2.222,1.207 -4.683,1.821 -7.39,1.821 -5.254,0 -9.535,-2.024 -12.863,-6.074 -3.325,-4.036 -4.997,-9.262 -4.997,-15.684 0,-7.223 2.047,-13.219 6.157,-17.941 4.105,-4.743 9.289,-7.114 15.578,-7.114 1.523,0 3.14,0.203 4.836,0.614 1.699,0.406 3.476,1.035 5.347,1.851 z m 27.309,41.711 c -1.105,0.707 -2.152,1.223 -3.152,1.57 -1.008,0.328 -1.965,0.5 -2.895,0.5 -1.277,0 -2.152,-0.406 -2.625,-1.222 -0.457,-0.801 -0.687,-2.45 -0.687,-4.899 0,-1.414 0.121,-4.566 0.363,-9.48 0.242,-4.899 0.363,-9.121 0.363,-12.637 0,-3.848 -0.16,-6.957 -0.469,-9.344 -0.324,-2.402 -0.836,-4.441 -1.535,-6.121 0.969,-0.676 1.965,-1.191 2.989,-1.539 1.035,-0.359 2.046,-0.531 3.043,-0.531 1.21,0 2.046,0.344 2.492,1.035 0.445,0.691 0.672,1.961 0.672,3.848 0,0.484 -0.122,3.168 -0.364,8.035 -0.242,4.883 -0.363,9.512 -0.363,13.91 0,4.098 0.176,7.504 0.539,10.203 0.352,2.699 0.902,4.93 1.629,6.672 z m -0.309,-57.723 c 0,1.743 -0.527,3.204 -1.578,4.364 -1.047,1.164 -2.383,1.742 -3.984,1.742 -1.399,0 -2.504,-0.453 -3.313,-1.379 -0.82,-0.914 -1.226,-2.152 -1.226,-3.723 0,-1.711 0.527,-3.172 1.578,-4.379 1.051,-1.207 2.328,-1.82 3.824,-1.82 1.371,0 2.488,0.484 3.379,1.477 0.875,0.972 1.32,2.211 1.32,3.718 z m 35.321,22.684 c -1.024,-0.738 -2.032,-1.273 -3,-1.586 -0.973,-0.328 -2.047,-0.484 -3.235,-0.484 -4,0 -7.34,1.664 -9.992,5.004 -2.652,3.347 -3.984,7.57 -3.984,12.687 0,4.629 1.172,8.305 3.527,11.02 2.356,2.714 5.547,4.066 9.574,4.066 1.739,0 3.313,-0.285 4.743,-0.832 1.414,-0.551 2.746,-1.398 3.984,-2.559 0.473,0.77 0.82,1.508 1.078,2.211 0.242,0.707 0.363,1.383 0.363,2.028 0,1.929 -0.957,3.468 -2.883,4.597 -1.91,1.149 -4.523,1.711 -7.808,1.711 -5.766,0 -10.438,-1.929 -14.047,-5.777 -3.598,-3.844 -5.398,-8.852 -5.398,-15.004 0,-7.488 2.179,-13.77 6.558,-18.871 4.36,-5.086 9.668,-7.629 15.903,-7.629 2.289,0 3.984,0.375 5.101,1.145 1.121,0.769 1.688,1.933 1.688,3.484 0,0.801 -0.176,1.586 -0.516,2.324 -0.348,0.754 -0.902,1.57 -1.656,2.465 z m 19.593,35.039 c -1.101,0.707 -2.152,1.223 -3.148,1.57 -1.012,0.328 -1.969,0.5 -2.898,0.5 -1.278,0 -2.153,-0.406 -2.625,-1.222 -0.457,-0.801 -0.688,-2.45 -0.688,-4.899 0,-1.414 0.121,-4.566 0.363,-9.48 0.243,-4.899 0.368,-9.121 0.368,-12.637 0,-3.848 -0.165,-6.957 -0.473,-9.344 -0.324,-2.402 -0.836,-4.441 -1.535,-6.121 0.968,-0.676 1.965,-1.191 2.988,-1.539 1.039,-0.359 2.047,-0.531 3.043,-0.531 1.215,0 2.051,0.344 2.492,1.035 0.445,0.691 0.676,1.961 0.676,3.848 0,0.484 -0.121,3.168 -0.367,8.035 -0.242,4.883 -0.364,9.512 -0.364,13.91 0,4.098 0.176,7.504 0.54,10.203 0.351,2.699 0.902,4.93 1.628,6.672 z m -0.308,-57.723 c 0,1.743 -0.524,3.204 -1.574,4.364 -1.051,1.164 -2.387,1.742 -3.989,1.742 -1.398,0 -2.504,-0.453 -3.312,-1.379 -0.82,-0.914 -1.223,-2.152 -1.223,-3.723 0,-1.711 0.524,-3.172 1.574,-4.379 1.051,-1.207 2.329,-1.82 3.825,-1.82 1.375,0 2.492,0.484 3.379,1.477 0.875,0.972 1.32,2.211 1.32,3.718 z m 18.207,24.457 c -0.055,3.375 -0.121,7 -0.215,10.879 -0.094,3.879 -0.137,6.078 -0.137,6.563 0,3.988 0.164,7.222 0.473,9.699 0.309,2.5 0.793,4.555 1.469,6.219 -1.106,0.676 -2.117,1.176 -3.032,1.492 -0.914,0.328 -1.816,0.484 -2.707,0.484 -1.21,0 -2.031,-0.39 -2.476,-1.191 -0.445,-0.801 -0.676,-2.465 -0.676,-5.008 0,-0.566 0.137,-3.406 0.406,-8.539 0.27,-5.133 0.403,-9.984 0.403,-14.555 0,-4.316 -0.149,-7.66 -0.43,-10.015 -0.297,-2.356 -0.77,-4.473 -1.43,-6.34 0.582,-0.223 1.176,-0.395 1.766,-0.504 0.594,-0.125 1.172,-0.187 1.723,-0.187 1.402,0 2.507,0.457 3.328,1.351 0.808,0.895 1.281,2.164 1.375,3.813 1.976,-1.649 4.066,-2.918 6.273,-3.813 2.211,-0.894 4.391,-1.351 6.559,-1.351 2.625,0 4.984,0.66 7.07,1.992 2.102,1.336 3.688,3.187 4.793,5.543 0.77,1.632 1.32,3.515 1.645,5.683 0.32,2.164 0.496,5.446 0.496,9.856 0,0.457 -0.028,1.558 -0.067,3.269 -0.039,1.711 -0.054,3.199 -0.054,4.457 0,3.157 0.175,5.871 0.527,8.133 0.351,2.274 0.875,4.047 1.574,5.336 -1.223,0.707 -2.301,1.223 -3.203,1.57 -0.902,0.328 -1.727,0.5 -2.465,0.5 -1.226,0 -2.09,-0.375 -2.574,-1.129 -0.484,-0.753 -0.727,-2.164 -0.727,-4.253 0,-1.254 0.082,-3.973 0.243,-8.118 0.164,-4.156 0.242,-7.691 0.242,-10.609 0,-5.543 -0.727,-9.578 -2.168,-12.074 -1.442,-2.496 -3.77,-3.75 -6.977,-3.75 -1.629,0 -3.379,0.39 -5.277,1.176 -1.887,0.785 -3.813,1.914 -5.75,3.421 z m 42.379,7.567 c 1.738,0.347 3.648,0.597 5.75,0.769 2.086,0.172 4.347,0.25 6.773,0.25 3.285,0 5.496,-0.343 6.598,-1.05 1.105,-0.707 1.656,-1.977 1.656,-3.832 0,-2.778 -0.832,-4.989 -2.488,-6.622 -1.66,-1.617 -3.922,-2.433 -6.789,-2.433 -3.055,0 -5.602,1.129 -7.621,3.406 -2.035,2.262 -3.328,5.445 -3.879,9.512 z m 22.972,18.07 c 0.579,0.832 0.997,1.602 1.266,2.324 0.281,0.719 0.418,1.411 0.418,2.086 0,1.664 -1.062,3.016 -3.18,4.082 -2.113,1.051 -4.875,1.586 -8.293,1.586 -6.289,0 -11.218,-1.996 -14.773,-5.996 -3.57,-4.004 -5.344,-9.531 -5.344,-16.578 0,-7.113 1.789,-12.937 5.387,-17.457 3.594,-4.52 8.199,-6.781 13.828,-6.781 4.348,0 7.906,1.445 10.691,4.316 2.79,2.887 4.188,6.563 4.188,11.035 0,3.532 -1.156,6.047 -3.473,7.551 -2.316,1.492 -6.25,2.246 -11.797,2.246 -2.086,0 -4.16,-0.078 -6.222,-0.25 -2.074,-0.172 -4.106,-0.426 -6.141,-0.754 v 0.645 c 0,4.769 1.215,8.555 3.637,11.347 2.41,2.778 5.711,4.176 9.859,4.176 1.949,0 3.754,-0.297 5.41,-0.894 1.661,-0.598 3.168,-1.492 4.539,-2.684"
         style="fill:#0067b0;fill-opacity:1;fill-rule:nonzero;stroke:none"
         id="path96" /></g></g></svg>
